{"title":"Dead.of.the.Nite.2013.HDRiP.XViD-FiRE","uid":9513577,"size":739210526,"categoryP":"video","categoryS":"movies","magnet":"?xt=urn:btih:10d69895b59e230ee810ea8074cb386c7f1ea2ca&amp;dn=Dead.of.the.Nite.2013.HDRiP.XViD-FiRE&amp;tr=udp%3A%2F%2Ftracker.openbittorrent.com%3A80&amp;tr=udp%3A%2F%2Fopen.demonii.com%3A1337&amp;tr=udp%3A%2F%2Ftracker.coppersurfer.tk%3A6969&amp;tr=udp%3A%2F%2Fexodus.desync.com%3A6969","seeders":3,"leechers":2,"uploader":"Acesn8s","files":-1,"time":1390468857,"description":"Dead.of.the.Nite.2013.HDRiP.XViD-FiRE\n\n**********************************************************************************\n\nFormat                                   : AVI\nFormat/Info                              : Audio Video Interleave\nFile size                                : 698 MiB\nDuration                                 : 1h 29mn\nOverall bit rate                         : 1 092 Kbps\nWriting application                      : VirtualDubMod 1.5.10.2 \nWriting library                          : VirtualDubMod build 2542/release\n\n**********************************************************************************\n\nVideo\n\nID                                       : 0\nFormat                                   : MPEG-4 Visual\nFormat profile                           : Advanced Simple@L5\nFormat settings, BVOP                    : 2\nFormat settings, QPel                    : No\nFormat settings, GMC                     : No warppoints\nFormat settings, Matrix                  : Custom\nMuxing mode                              : Packed bitstream\nCodec ID                                 : XVID\nCodec ID/Hint                            : XviD\nDuration                                 : 1h 29mn\nBit rate                                 : 955 Kbps\nWidth                                    : 720 pixels\nHeight                                   : 400 pixels\nDisplay aspect ratio                     : 16:9\nFrame rate                               : 24.000 fps\nColor space                              : YUV\nChroma subsampling                       : 4:2:0\nBit depth                                : 8 bits\nScan type                                : Progressive\nCompression mode                         : Lossy\nBits/(Pixel*Frame)                       : 0.138\nStream size                              : 611 MiB (87%)\nWriting library                          : XviD 58\n\n**********************************************************************************\n\nAudio\n\nID                                       : 1\nFormat                                   : MPEG Audio\nFormat version                           : Version 1\nFormat profile                           : Layer 3\nMode                                     : Joint stereo\nMode extension                           : MS Stereo\nCodec ID                                 : 55\nCodec ID/Hint                            : MP3\nDuration                                 : 1h 29mn\nBit rate mode                            : Constant\nBit rate                                 : 128 Kbps\nChannel(s)                               : 2 channels\nSampling rate                            : 48.0 KHz\nCompression mode                         : Lossy\nStream size                              : 81.9 MiB (12%)\nAlignment                                : Aligned on interleaves\nInterleave, duration                     : 42 ms (1.00 video frame)\nInterleave, preload duration             : 504 ms\nWriting library                          : LAME3.97 \nEncoding settings                        : -m j -V 4 -q 2 -lowpass 17 -b 128\nSource                                   : WEB-DL\n\n**********************************************************************************\n\nGenre \n\nHorror   \n\nActors\n\nTony Todd, Joseph Millson, Cicely Tennant  \n\nPlot\n\nWhen a group of ghost hunters investigate the infamous Jericho Manor, they soon realise it's not just ghosts that go bump in the night! As people get murdered, the survivors need to discover who or what's killing them before it's too late.\n\n**********************************************************************************\n\nIMDb\n  &lt;a href=&quot;\nhttp://www.imdb.com/title/tt1975146/&quot; rel=&quot;nofollow&quot; target=&quot;_NEW&quot;&gt;\nhttp://www.imdb.com/title/tt1975146/&lt;/a&gt;\n\n**********************************************************************************\n\nScreens\n &lt;a href=&quot;\nhttp://img.acianetmedia.com/i/8REdK.jpg&quot; rel=&quot;nofollow&quot; target=&quot;_NEW&quot;&gt;\nhttp://img.acianetmedia.com/i/8REdK.jpg&lt;/a&gt;\n &lt;a href=&quot;\nhttp://img.acianetmedia.com/i/9ikYu.jpg&quot; rel=&quot;nofollow&quot; target=&quot;_NEW&quot;&gt;\nhttp://img.acianetmedia.com/i/9ikYu.jpg&lt;/a&gt;\n &lt;a href=&quot;\nhttp://img.acianetmedia.com/i/3ORgn.jpg&quot; rel=&quot;nofollow&quot; target=&quot;_NEW&quot;&gt;\nhttp://img.acianetmedia.com/i/3ORgn.jpg&lt;/a&gt;\n &lt;a href=&quot;\nhttp://img.acianetmedia.com/i/lqCei.jpg&quot; rel=&quot;nofollow&quot; target=&quot;_NEW&quot;&gt;\nhttp://img.acianetmedia.com/i/lqCei.jpg&lt;/a&gt;","torrent":{"xt":"urn:btih:10d69895b59e230ee810ea8074cb386c7f1ea2ca","amp;dn":"Dead.of.the.Nite.2013.HDRiP.XViD-FiRE","amp;tr":["udp%3A%2F%2Ftracker.openbittorrent.com%3A80","udp%3A%2F%2Fopen.demonii.com%3A1337","udp%3A%2F%2Ftracker.coppersurfer.tk%3A6969","udp%3A%2F%2Fexodus.desync.com%3A6969"],"infoHash":"10d69895b59e230ee810ea8074cb386c7f1ea2ca","infoHashBuffer":{"type":"Buffer","data":[16,214,152,149,181,158,35,14,232,16,234,128,116,203,56,108,127,30,162,202]},"announce":[],"urlList":[]}}